<?xml version="1.0" encoding="utf-8"?>
<!-- Generator: Adobe Illustrator 21.0.0, SVG Export Plug-In . SVG Version: 6.00 Build 0)  -->
<svg version="1.1"
	 id="svg10" inkscape:export-xdpi="96" inkscape:export-ydpi="96" xmlns:inkscape="http://www.inkscape.org/namespaces/inkscape" xmlns:sodipodi="http://sodipodi.sourceforge.net/DTD/sodipodi-0.dtd" xmlns:svg="http://www.w3.org/2000/svg"
	 xmlns="http://www.w3.org/2000/svg" xmlns:xlink="http://www.w3.org/1999/xlink" x="0px" y="0px" viewBox="0 0 800 800"
	 style="enable-background:new 0 0 800 800;" xml:space="preserve">
<style type="text/css">
	.st0{fill:#88C9F9;}
	.st1{fill:#1213BD;}
	.st2{display:none;fill:#1213BD;}
	.st3{fill:#1DE500;}
</style>
<path id="path2" class="st0" d="M800,406.7c0,110.7-54.7,204.4-125.7,276.9S511.6,798.1,403.2,798.1s-217-24.7-288-97.2
	S0,517.4,0,406.7s57.2-208.4,128.2-281S294.9,0,403.2,0S612,48.4,683,120.9C754,193.5,800,296,800,406.7z"/>
<path id="path4_1_" class="st1" d="M728.7,411.9c0,92-30.3,182.1-90.6,242.4C577.9,714.6,487.8,732,395.8,732s-169-30.4-229.4-90.7
	S71.3,503.9,71.3,411.9S96.2,233,156.5,172.8S303.8,68,395.6,68s172.2,51.2,232.5,111.5C688.6,239.7,728.7,319.9,728.7,411.9
	L728.7,411.9z"/>
<path id="path4" class="st2" d="M675.4,409.1c0,77.1-25.4,152.6-75.9,203.1s-126,65.1-203.1,65.1s-141.6-25.5-192.2-76
	s-79.7-115.1-79.7-192.2s20.9-149.9,71.4-200.4s123.4-87.8,200.4-87.8s144.3,42.9,194.8,93.4C641.8,264.8,675.4,332,675.4,409.1
	L675.4,409.1z"/>
<path id="__" class="st3" d="M142.1,468.3c28.7,25,74,39.6,108.7,39.6c74.3,0,115.2-36.9,115.2-85.1c0-88.9-142.2-84.5-142.2-119.1
	c0-14.3,12.1-22.5,33.9-22.5c27,0,44.8,8.5,67.9,24.6l35.4-41.1c-24-24.1-53.9-41.3-98.6-41.3c-65.1,0-107.1,31.9-107.1,81.3
	c0,89.7,142.2,82.5,142.2,123.2c0,14.1-12.5,22.3-36.1,22.3c-30.6,0-57.2-11.3-87.9-30.3L142.1,468.3z M235.1,245.6h47.6v-84.3
	h-47.6V245.6L235.1,245.6z M235.1,478.6V578h47.6v-99.4H235.1L235.1,478.6z M383.7,604.6h233.9v-53.8H383.7V604.6z"/>
</svg>
