<?xml version="1.0" encoding="UTF-8" standalone="no"?>
<svg
   viewBox="0 0 36 36"
   version="1.1"
   id="svg56"
   sodipodi:docname="logo.svg"
   xml:space="preserve"
   inkscape:version="1.2.2 (b0a8486541, 2022-12-01)"
   xmlns:inkscape="http://www.inkscape.org/namespaces/inkscape"
   xmlns:sodipodi="http://sodipodi.sourceforge.net/DTD/sodipodi-0.dtd"
   xmlns="http://www.w3.org/2000/svg"
   xmlns:svg="http://www.w3.org/2000/svg"><defs
     id="defs60" /><sodipodi:namedview
     id="namedview58"
     pagecolor="#ffffff"
     bordercolor="#666666"
     borderopacity="1.0"
     inkscape:showpageshadow="2"
     inkscape:pageopacity="0.0"
     inkscape:pagecheckerboard="0"
     inkscape:deskcolor="#d1d1d1"
     showgrid="false"
     inkscape:zoom="11.313709"
     inkscape:cx="11.667262"
     inkscape:cy="10.518213"
     inkscape:window-width="1920"
     inkscape:window-height="1051"
     inkscape:window-x="0"
     inkscape:window-y="0"
     inkscape:window-maximized="1"
     inkscape:current-layer="svg56" /><path
     fill="#9AAAB4"
     d="M27.388 24.642L24.56 27.47l-4.95-4.95 2.828-2.828z"
     id="path48" /><path
     fill="#66757F"
     d="M34.683 29.11l-5.879-5.879c-.781-.781-2.047-.781-2.828 0l-2.828 2.828c-.781.781-.781 2.047 0 2.828l5.879 5.879c1.562 1.563 4.096 1.563 5.658 0 1.56-1.561 1.559-4.094-.002-5.656z"
     id="path50" /><circle
     fill="#8899A6"
     cx="13.586"
     cy="13.669"
     r="13.5"
     id="circle52" /><circle
     fill="#BBDDF5"
     cx="13.586"
     cy="13.669"
     r="9.5"
     id="circle54" /><g
     id="g298"
     transform="matrix(0.54598784,0,0,0.54598784,3.7582193,3.86415)"><path
       fill="#1213bd"
       d="M 36,18.302 C 36,23.283 33.54,27.5 30.345,30.764 27.15,34.028 23.022,35.916 18.146,35.916 13.27,35.916 8.382,34.804 5.187,31.54 1.992,28.276 0,23.283 0,18.302 0,13.321 2.574,8.922 5.769,5.658 8.964,2.394 13.271,0 18.146,0 23.021,0 27.54,2.178 30.735,5.442 33.931,8.706 36,13.322 36,18.302 Z"
       id="path2" /><path
       fill="#ffffff"
       d="m 30.394282,18.410186 c 0,3.468849 -1.143025,6.865475 -3.416513,9.137917 -2.273489,2.272442 -5.670115,2.92874 -9.137918,2.92874 -3.467803,0 -6.373515,-1.147212 -8.6470033,-3.419654 -2.2734888,-2.272442 -3.5871299,-5.178154 -3.5871299,-8.647003 0,-3.46885 0.9420533,-6.746149 3.2144954,-9.0196379 2.2724418,-2.2734888 5.5507878,-3.9513905 9.0196378,-3.9513905 3.46885,0 6.492841,1.9322561 8.76633,4.204698 2.273489,2.2724424 3.788101,5.2974804 3.788101,8.7663304 z"
       id="path4"
       style="fill:#88c9f9;fill-opacity:1;stroke-width:1.04673" /><path
       fill="#292f33"
       d="m 23.95823,17.818306 c 0,3.153748 -2.644888,5.808102 -5.798635,5.808102 -3.153748,0 -5.599825,-2.654354 -5.599825,-5.808102 0,-3.153747 2.446077,-5.721714 5.599825,-5.721714 3.153747,0 5.798635,2.567967 5.798635,5.721714 z"
       id="path8"
       style="fill:#0a62a5;fill-opacity:1;stroke-width:1.18339" /></g></svg>
