<?xml version="1.0" encoding="UTF-8" standalone="no"?>
<svg
   viewBox="0 0 36 36"
   version="1.1"
   id="svg2"
   sodipodi:docname="downvote_and_remove.svg"
   xml:space="preserve"
   inkscape:version="1.3.2 (091e20ef0f, 2023-11-25, custom)"
   xmlns:inkscape="http://www.inkscape.org/namespaces/inkscape"
   xmlns:sodipodi="http://sodipodi.sourceforge.net/DTD/sodipodi-0.dtd"
   xmlns="http://www.w3.org/2000/svg"
   xmlns:svg="http://www.w3.org/2000/svg"><defs
     id="defs2" /><sodipodi:namedview
     id="namedview2"
     pagecolor="#505050"
     bordercolor="#eeeeee"
     borderopacity="1"
     inkscape:showpageshadow="0"
     inkscape:pageopacity="0"
     inkscape:pagecheckerboard="0"
     inkscape:deskcolor="#505050"
     inkscape:zoom="11.777778"
     inkscape:cx="3.9056603"
     inkscape:cy="17.150943"
     inkscape:window-width="1920"
     inkscape:window-height="1052"
     inkscape:window-x="0"
     inkscape:window-y="0"
     inkscape:window-maximized="1"
     inkscape:current-layer="svg2" /><path
     fill="#FFDB5E"
     d="M34.956 18.084c0 .503-.12.975-.321 1.404-1.341 4.326-7.619 4.01-16.549 4.221-1.493.035-.639 1.798-.115 5.668.341 2.517-1.282 6.382-4.01 6.382-4.498 0-.171-3.548-4.148-12.322-2.125-4.688-6.875-2.062-6.875-6.771V5.948c0-1.833.18-3.595 2.758-3.885C8.195 1.781 7.633 0 11.238 0h18.044c1.838 0 3.333 1.496 3.333 3.334 0 .762-.267 1.456-.698 2.018 1.02.571 1.72 1.649 1.72 2.899 0 .76-.266 1.454-.696 2.015 1.023.57 1.725 1.649 1.725 2.901 0 .909-.368 1.733-.961 2.336.757.611 1.251 1.535 1.251 2.581z"
     id="path1" /><path
     fill="#EE9547"
     d="M23.02 14.751h8.604c1.17 0 2.268.626 2.866 1.633.246.415.109.952-.307 1.199-.415.247-.952.108-1.199-.307-.283-.479-.806-.775-1.361-.775h-8.81c-.873 0-1.583.71-1.583 1.583s.71 1.583 1.583 1.583H28.7c.483 0 .875.392.875.875s-.392.875-.875.875h-5.888c-1.838 0-3.333-1.495-3.333-3.333 0-1.025.475-1.932 1.205-2.544-.615-.605-.998-1.445-.998-2.373 0-1.028.478-1.938 1.212-2.549-.611-.604-.99-1.441-.99-2.367 0-1.12.559-2.108 1.409-2.713-.524-.589-.852-1.356-.852-2.204 0-1.838 1.495-3.333 3.333-3.333h5.484c1.17 0 2.269.625 2.867 1.632.247.415.11.952-.305 1.199-.416.245-.953.11-1.199-.305-.285-.479-.808-.776-1.363-.776h-5.484c-.873 0-1.583.71-1.583 1.583s.71 1.583 1.583 1.583h6.506c1.17 0 2.27.626 2.867 1.633.247.416.11.953-.305 1.199-.419.251-.954.11-1.199-.305-.289-.487-.799-.777-1.363-.777h-7.063c-.873 0-1.583.711-1.583 1.584s.71 1.583 1.583 1.583h8.091c1.17 0 2.269.625 2.867 1.632.247.415.11.952-.305 1.199-.417.246-.953.11-1.199-.305-.289-.486-.799-.776-1.363-.776H23.02c-.873 0-1.583.71-1.583 1.583s.709 1.584 1.583 1.584z"
     id="path2" /><path
     fill="#dd2e44"
     d="M 16.400835,22.488455 26.401667,12.488439 c 0.797778,-0.797779 0.797778,-2.091715 0,-2.889492 -0.798595,-0.798596 -2.091715,-0.798596 -2.889492,0 L 13.511342,19.598961 3.5113265,9.598947 c -0.7977781,-0.798596 -2.0925323,-0.798596 -2.88949293,0 -0.79859531,0.797777 -0.79859531,2.091713 0,2.889492 L 10.621849,22.488455 0.5989465,32.512175 c -0.79859533,0.798594 -0.79859533,2.091713 0,2.889492 C 0.99783554,35.800556 1.5209686,36 2.0441016,36 2.5672346,36 3.0903678,35.800556 3.4892568,35.401667 L 13.512159,25.377946 23.512175,35.377962 c 0.398889,0.398889 0.922021,0.598335 1.445154,0.598335 0.523133,0 1.04545,-0.199446 1.445156,-0.598335 0.797778,-0.798595 0.797778,-2.091713 0,-2.889494 z"
     id="path1-3"
     style="stroke-width:0.817395" /></svg>
