<?xml version="1.0" encoding="UTF-8" standalone="no"?>
<svg
   viewBox="0 0 36 36"
   version="1.1"
   id="svg5"
   sodipodi:docname="timestamp_missing.svg"
   xml:space="preserve"
   inkscape:version="1.3.2 (091e20ef0f, 2023-11-25, custom)"
   xmlns:inkscape="http://www.inkscape.org/namespaces/inkscape"
   xmlns:sodipodi="http://sodipodi.sourceforge.net/DTD/sodipodi-0.dtd"
   xmlns="http://www.w3.org/2000/svg"
   xmlns:svg="http://www.w3.org/2000/svg"><defs
     id="defs5" /><sodipodi:namedview
     id="namedview5"
     pagecolor="#505050"
     bordercolor="#eeeeee"
     borderopacity="1"
     inkscape:showpageshadow="0"
     inkscape:pageopacity="0"
     inkscape:pagecheckerboard="0"
     inkscape:deskcolor="#505050"
     inkscape:zoom="16.656293"
     inkscape:cx="12.007474"
     inkscape:cy="18.25136"
     inkscape:window-width="1920"
     inkscape:window-height="1052"
     inkscape:window-x="0"
     inkscape:window-y="0"
     inkscape:window-maximized="1"
     inkscape:current-layer="svg5" /><path
     fill="#66757F"
     d="M4 5s0-1 1-1h6s1 0 1 1v2H4V5z"
     id="path1" /><path
     fill="#31373D"
     d="M0 10s0-4 4-4h28s4 0 4 4v18s0 4-4 4H4s-4 0-4-4V10z"
     id="path2" /><circle
     fill="#CCD6DD"
     cx="21"
     cy="19"
     r="10"
     id="circle2" /><circle
     fill="#31373D"
     cx="21"
     cy="19"
     r="8"
     id="circle3" /><circle
     fill="#3B88C3"
     cx="21"
     cy="19"
     r="5"
     id="circle4" /><circle
     fill="#FFF"
     cx="32.5"
     cy="9.5"
     r="1.5"
     id="circle5" /><path
     fill="#F5F8FA"
     d="M12 9.5c0 .829-.671 1.5-1.5 1.5h-5C4.671 11 4 10.329 4 9.5S4.671 8 5.5 8h5c.829 0 1.5.671 1.5 1.5z"
     id="path5" /><g
     id="g5"
     transform="matrix(0.45454545,0,0,0.45454545,19.500364,18.590909)"><path
       fill="#be1931"
       d="m 21,27 c -1.657,0 -3,-1.343 -3,-3 v -4 c 0,-1.657 1.343,-3 3,-3 0.603,-0.006 6,-1 6,-5 0,-2 -2,-4 -5,-4 -2.441,0 -4,2 -4,3 0,1.657 -1.343,3 -3,3 -1.657,0 -3,-1.343 -3,-3 0,-4.878 4.58,-9 10,-9 8,0 11,5.982 11,11 0,4.145 -2.277,7.313 -6.413,8.92 -0.9,0.351 -1.79,0.587 -2.587,0.747 V 24 c 0,1.657 -1.343,3 -3,3 z"
       id="path1-0" /><circle
       fill="#be1931"
       cx="21"
       cy="32"
       r="3"
       id="circle1" /><circle
       fill="#be1931"
       cx="6"
       cy="32"
       r="3"
       id="circle2-9" /><path
       fill="#be1931"
       d="M 9,24 C 9,25.657 7.657,27 6,27 4.343,27 3,25.657 3,24 V 5 C 3,3.343 4.343,2 6,2 7.657,2 9,3.343 9,5 Z"
       id="path2-3" /></g></svg>
