<?xml version="1.0" encoding="UTF-8" standalone="no"?>
<svg
   viewBox="0 0 48 48"
   version="1.1"
   id="svg5"
   sodipodi:docname="timestamp_missing.svg"
   xml:space="preserve"
   inkscape:version="1.3.2 (091e20ef0f, 2023-11-25, custom)"
   width="48"
   height="48"
   xmlns:inkscape="http://www.inkscape.org/namespaces/inkscape"
   xmlns:sodipodi="http://sodipodi.sourceforge.net/DTD/sodipodi-0.dtd"
   xmlns="http://www.w3.org/2000/svg"
   xmlns:svg="http://www.w3.org/2000/svg"><defs
     id="defs5" /><sodipodi:namedview
     id="namedview5"
     pagecolor="#505050"
     bordercolor="#eeeeee"
     borderopacity="1"
     inkscape:showpageshadow="0"
     inkscape:pageopacity="0"
     inkscape:pagecheckerboard="0"
     inkscape:deskcolor="#505050"
     inkscape:zoom="16.656293"
     inkscape:cx="10.206353"
     inkscape:cy="15.129417"
     inkscape:window-width="1920"
     inkscape:window-height="1052"
     inkscape:window-x="0"
     inkscape:window-y="0"
     inkscape:window-maximized="1"
     inkscape:current-layer="svg5" /><g
     id="g22"
     transform="rotate(22.520538,19.731747,27.381582)"><path
       d="m 27.891102,6.2342864 -3.927734,3.7929686 a 10,10 0 0 1 3.828125,-0.7929686 10,10 0 0 1 10,9.9999996 10,10 0 0 1 -10,10 10,10 0 0 1 -8.615234,-4.935547 l -0.666016,0.642578 2.052734,4.101563 -4.091797,3.191406 h 22.320313 c 3.999996,0 4,-4 4,-4 v -18 c 0,-3.9999956 -4,-3.9999996 -4,-3.9999996 z"
       style="fill:#31373d"
       id="path15" /><path
       d="m 23.963368,10.027255 -4.166016,4.02539 1.033204,1.316407 a 8,8 0 0 1 6.960937,-4.134766 8,8 0 0 1 8,8 8,8 0 0 1 -8,8 8,8 0 0 1 -7.099609,-4.392578 l -1.515625,1.457031 a 10,10 0 0 0 8.615234,4.935547 10,10 0 0 0 10,-10 10,10 0 0 0 -10,-9.9999996 10,10 0 0 0 -3.828125,0.7929686 z"
       style="fill:#ccd6dd"
       id="path17" /><path
       d="m 20.830556,15.369052 2.115234,2.697265 a 5,5 0 0 1 4.845703,-3.832031 5,5 0 0 1 5,5 5,5 0 0 1 -5,5 5,5 0 0 1 -4.792969,-3.615234 l -2.30664,2.222656 a 8,8 0 0 0 7.099609,4.392578 8,8 0 0 0 8,-8 8,8 0 0 0 -8,-8 8,8 0 0 0 -6.960937,4.134766 z"
       style="fill:#31373d"
       id="path19" /><path
       d="m 22.94579,18.066317 1.164062,1.484375 -1.111328,1.06836 a 5,5 0 0 0 4.792969,3.615234 5,5 0 0 0 5,-5 5,5 0 0 0 -5,-5 5,5 0 0 0 -4.845703,3.832031 z"
       style="fill:#3b88c3"
       id="path21" /><circle
       fill="#ffffff"
       cx="39.291492"
       cy="9.7342863"
       r="1.5"
       id="circle5" /></g><g
     id="g23"
     transform="rotate(-13.99452,26.625201,12.44269)"><path
       fill="#66757f"
       d="M 4,5 C 4,5 4,4 5,4 h 6 c 0,0 1,0 1,1 V 7 H 4 Z"
       id="path1" /><path
       d="M 21.099609,6 H 4 C 4e-6,6 0,10 0,10 v 18 c 0,3.999996 4,4 4,4 H 9.6796875 L 13.771484,28.808594 11.71875,24.707031 12.384766,24.064453 A 10,10 0 0 1 11,19 10,10 0 0 1 17.171875,9.7929688 Z"
       style="fill:#31373d"
       id="path16" /><path
       d="M 17.171875,9.7929688 A 10,10 0 0 0 11,19 a 10,10 0 0 0 1.384766,5.064453 l 1.515625,-1.457031 A 8,8 0 0 1 13,19 8,8 0 0 1 14.039063,15.134766 l -1.033204,-1.316407 z"
       style="fill:#ccd6dd"
       id="path18" /><path
       d="M 14.039063,15.134766 A 8,8 0 0 0 13,19 a 8,8 0 0 0 0.900391,3.607422 l 2.30664,-2.222656 A 5,5 0 0 1 16,19 5,5 0 0 1 16.154297,17.832031 Z"
       style="fill:#31373d"
       id="path20" /><path
       fill="#f5f8fa"
       d="m 12,9.5 c 0,0.829 -0.671,1.5 -1.5,1.5 h -5 C 4.671,11 4,10.329 4,9.5 4,8.671 4.671,8 5.5,8 h 5 C 11.329,8 12,8.671 12,9.5 Z"
       id="path5" /></g></svg>
