<?xml version="1.0" encoding="UTF-8" standalone="no"?>
<svg
   viewBox="0 0 48 48"
   version="1.1"
   id="svg2"
   sodipodi:docname="votes_missing.svg"
   xml:space="preserve"
   width="48"
   height="48"
   inkscape:version="1.3.2 (091e20ef0f, 2023-11-25, custom)"
   xmlns:inkscape="http://www.inkscape.org/namespaces/inkscape"
   xmlns:sodipodi="http://sodipodi.sourceforge.net/DTD/sodipodi-0.dtd"
   xmlns="http://www.w3.org/2000/svg"
   xmlns:svg="http://www.w3.org/2000/svg"><defs
     id="defs2" /><sodipodi:namedview
     id="namedview2"
     pagecolor="#505050"
     bordercolor="#eeeeee"
     borderopacity="1"
     inkscape:showpageshadow="0"
     inkscape:pageopacity="0"
     inkscape:pagecheckerboard="0"
     inkscape:deskcolor="#505050"
     showgrid="false"
     showguides="false"
     inkscape:zoom="16"
     inkscape:cx="28.53125"
     inkscape:cy="26.6875"
     inkscape:window-width="1920"
     inkscape:window-height="1052"
     inkscape:window-x="0"
     inkscape:window-y="0"
     inkscape:window-maximized="1"
     inkscape:current-layer="svg2" /><g
     id="g3"
     transform="matrix(-1,0,0,1,35.038004,0.00703563)"><path
       id="path13"
       d="M 5.7508946 15.87773 C 7.1668179 15.376989 8.791396 14.817926 9.8133946 12.563277 C 13.790391 3.7892856 9.4638366 0.24101125 13.961832 0.24101125 C 16.689829 0.24101124 18.312597 4.1068263 17.971598 6.6238237 C 17.447598 10.49382 16.593834 12.256793 18.086832 12.291792 C 27.016823 12.502792 33.294662 12.1865 34.63566 16.512496 C 34.83666 16.941495 34.955973 17.413793 34.955973 17.916792 C 34.955973 18.962791 34.462972 19.885871 33.705973 20.496871 C 34.298972 21.09987 34.66691 21.923809 34.66691 22.832808 C 34.66691 24.084807 33.963347 25.163199 32.940348 25.733199 C 33.370347 26.294198 33.637613 26.988825 33.637613 27.748824 C 33.637613 28.998822 32.936909 30.076262 31.91691 30.647261 C 32.34791 31.209261 32.614176 31.904793 32.614176 32.666792 C 32.614176 34.504791 31.120143 36.000777 29.282145 36.000777 L 25.873942 36.000777 L 5.7508946 15.87773 z "
       style="fill:#ffdb5e;fill-opacity:1" /><path
       id="path2"
       d="M 24.121988 34.248824 L 29.282145 34.248824 C 29.837144 34.248824 30.360426 33.952433 30.645426 33.473433 C 30.891426 33.058434 31.428645 32.923746 31.844645 33.168746 C 32.259644 33.415745 32.396332 33.952965 32.149332 34.367964 C 31.551333 35.374963 30.452143 35.998824 29.282145 35.998824 L 25.871988 35.998824 L 24.121988 34.248824 z "
       style="fill:#ee9547;fill-opacity:1" /><path
       id="path15"
       d="M 20.907145 31.03398 C 21.024887 30.82973 21.161364 30.636994 21.317301 30.461714 C 20.467302 29.856715 19.907145 28.868823 19.907145 27.748824 C 19.907145 26.822825 20.28638 25.985636 20.897379 25.381636 C 20.16338 24.770637 19.686442 23.860807 19.686442 22.832808 C 19.686442 21.904809 20.069489 21.064761 20.684488 20.459761 C 19.954489 19.847762 19.47941 18.941791 19.47941 17.916792 C 19.47941 16.078794 20.973443 14.582808 22.811442 14.582808 L 28.700113 14.582808 C 29.183113 14.582808 29.575113 14.974809 29.575113 15.457808 C 29.575113 15.940808 29.183113 16.332808 28.700113 16.332808 L 22.813395 16.332808 C 21.940395 16.332808 21.22941 17.043793 21.22941 17.916792 C 21.22941 18.789792 21.940395 19.498824 22.813395 19.498824 L 31.623942 19.498824 C 32.178941 19.498824 32.700317 19.202433 32.983317 18.723433 C 33.230316 18.308434 33.767536 18.169793 34.182535 18.416792 C 34.598535 18.663792 34.735176 19.201012 34.489176 19.616011 C 33.891176 20.62301 32.79394 21.248824 31.623942 21.248824 L 23.020426 21.248824 C 22.146427 21.248824 21.436442 21.959809 21.436442 22.832808 C 21.436442 23.705807 22.147427 24.416792 23.020426 24.416792 L 31.332926 24.416792 C 31.896925 24.416792 32.405254 24.125448 32.694254 23.639449 C 32.940254 23.224449 33.476473 23.088761 33.893473 23.334761 C 34.308472 23.581761 34.44516 24.11898 34.19816 24.53398 C 33.600161 25.540979 32.502925 26.166792 31.332926 26.166792 L 23.241129 26.166792 C 22.36813 26.166792 21.657145 26.875825 21.657145 27.748824 C 21.657145 28.621823 22.36813 29.332808 23.241129 29.332808 L 30.303629 29.332808 C 30.867628 29.332808 31.377911 29.042464 31.66691 28.555464 C 31.91191 28.140465 32.447129 27.999777 32.866129 28.250777 C 33.281129 28.496777 33.417816 29.033996 33.170817 29.449996 C 32.573817 30.456995 31.473628 31.082808 30.303629 31.082808 L 23.79777 31.082808 C 23.02579 31.082808 22.381908 31.637773 22.243082 32.369917 L 20.907145 31.03398 z "
       style="fill:#ee9547;fill-opacity:1" /></g><g
     id="g2"
     transform="translate(12.610446,12.015282)"><path
       id="path1-5"
       d="M 5.9911165 20.211281 C 7.3484006 20.695482 8.8481276 21.308378 9.8133821 23.437843 C 13.790378 32.211834 9.4638241 35.758156 13.96182 35.758156 C 16.689817 35.758155 18.312585 31.894294 17.971585 29.377296 C 17.447586 25.5073 16.593821 23.744327 18.08682 23.709327 C 27.016811 23.498328 33.294649 23.81462 34.635648 19.488624 C 34.836648 19.059625 34.95596 18.587327 34.95596 18.084327 C 34.95596 17.038328 34.462959 16.113296 33.70596 15.502296 C 34.29896 14.899297 34.666898 14.075358 34.666898 13.166359 C 34.666898 11.91436 33.963334 10.835967 32.940335 10.265968 C 33.370335 9.7049686 33.637601 9.0103422 33.637601 8.250343 C 33.637601 7.0003443 32.936897 5.9229049 31.916898 5.3519055 C 32.347897 4.7899061 32.614163 4.0963266 32.614163 3.3343274 C 32.614163 1.4963292 31.12013 0.000343 29.282132 0.000343 L 26.202054 0.000343 L 5.9911165 20.211281 z "
       style="fill:#ffdb5e;fill-opacity:1" /><path
       id="path2-6"
       d="M 24.452054 1.750343 L 29.282132 1.750343 C 29.837132 1.750343 30.360414 2.0486872 30.645413 2.5276868 C 30.891413 2.9426863 31.428633 3.077374 31.844632 2.8323743 C 32.259632 2.5853745 32.396319 2.0481551 32.14932 1.6331555 C 31.55132 0.62615651 30.452131 0.000343 29.282132 0.000343 L 26.202054 0.000343 L 24.452054 1.750343 z "
       style="fill:#ee9547;fill-opacity:1" /><path
       id="path19"
       d="M 21.034085 5.1683118 C 21.121097 5.2974324 21.214051 5.4214085 21.317288 5.5374524 C 20.467289 6.1424518 19.907132 7.1303441 19.907132 8.250343 C 19.907132 9.1763421 20.286367 10.013531 20.897367 10.617531 C 20.163367 11.22853 19.686429 12.13836 19.686429 13.166359 C 19.686429 14.094358 20.069476 14.934406 20.684476 15.539406 C 19.954477 16.151405 19.479398 17.059328 19.479398 18.084327 C 19.479398 19.922326 20.973431 21.416359 22.811429 21.416359 L 28.700101 21.416359 C 29.1831 21.416359 29.575101 21.024358 29.575101 20.541359 C 29.575101 20.058359 29.1831 19.666359 28.700101 19.666359 L 22.813382 19.666359 C 21.940383 19.666359 21.229398 18.957327 21.229398 18.084327 C 21.229398 17.211328 21.940383 16.500343 22.813382 16.500343 L 31.623929 16.500343 C 32.178928 16.500343 32.700304 16.796734 32.983304 17.275734 C 33.230304 17.690733 33.767523 17.829374 34.182523 17.582374 C 34.598522 17.335374 34.735163 16.798155 34.489163 16.383156 C 33.891164 15.376157 32.793928 14.750343 31.623929 14.750343 L 23.020413 14.750343 C 22.146414 14.750343 21.436429 14.039358 21.436429 13.166359 C 21.436429 12.293359 22.147414 11.584327 23.020413 11.584327 L 31.332913 11.584327 C 31.896913 11.584327 32.405242 11.873718 32.694242 12.359718 C 32.940241 12.774718 33.476461 12.910405 33.89346 12.664406 C 34.30846 12.417406 34.445148 11.880186 34.198148 11.465187 C 33.600148 10.458188 32.502912 9.8343274 31.332913 9.8343274 L 23.241117 9.8343274 C 22.368117 9.8343274 21.657132 9.1233421 21.657132 8.250343 C 21.657132 7.3773439 22.368117 6.6663586 23.241117 6.6663586 L 30.303617 6.6663586 C 30.867616 6.6663586 31.377898 6.9567029 31.666898 7.4437024 C 31.911898 7.858702 32.447117 7.9993896 32.866117 7.7483899 C 33.281116 7.5023901 33.417804 6.9651707 33.170804 6.5491711 C 32.573805 5.5421721 31.473615 4.9163586 30.303617 4.9163586 L 23.797757 4.9163586 C 23.119336 4.9163586 22.540172 4.4879001 22.315335 3.8870618 L 21.034085 5.1683118 z "
       style="fill:#ee9547;fill-opacity:1" /></g><g
     id="g4"
     transform="matrix(0.60606667,0,0,0.60606061,25.9998,24.787879)"><path
       fill="#be1931"
       d="m 21,27 c -1.657,0 -3,-1.343 -3,-3 v -4 c 0,-1.657 1.343,-3 3,-3 0.603,-0.006 6,-1 6,-5 0,-2 -2,-4 -5,-4 -2.441,0 -4,2 -4,3 0,1.657 -1.343,3 -3,3 -1.657,0 -3,-1.343 -3,-3 0,-4.878 4.58,-9 10,-9 8,0 11,5.982 11,11 0,4.145 -2.277,7.313 -6.413,8.92 -0.9,0.351 -1.79,0.587 -2.587,0.747 V 24 c 0,1.657 -1.343,3 -3,3 z"
       id="path1-2" /><circle
       fill="#be1931"
       cx="21"
       cy="32"
       r="3"
       id="circle1" /><circle
       fill="#be1931"
       cx="6"
       cy="32"
       r="3"
       id="circle2" /><path
       fill="#be1931"
       d="M 9,24 C 9,25.657 7.657,27 6,27 4.343,27 3,25.657 3,24 V 5 C 3,3.343 4.343,2 6,2 7.657,2 9,3.343 9,5 Z"
       id="path2-7" /></g></svg>
